HIERARCHY
ROOT Hips
{
    OFFSET   0.000000   0.000000   0.000000
    CHANNELS 6 Xposition Yposition Zposition Zrotation Xrotation Yrotation
    JOINT Chest
    {
        OFFSET   0.000000   8.007230   0.000000
        CHANNELS 3 Zrotation Xrotation Yrotation
        JOINT Chest2
        {
            OFFSET   0.000000  22.077100   0.000000
            CHANNELS 3 Zrotation Xrotation Yrotation
            JOINT Neck
            {
                OFFSET   0.000000  23.254800  -0.000021
                CHANNELS 3 Zrotation Xrotation Yrotation
                JOINT Head
                {
                    OFFSET   0.000000  14.370000   1.956610
                    CHANNELS 3 Zrotation Xrotation Yrotation
                    End Site
                    {
                        OFFSET   0.000000  19.566000   0.000000
                    }
                }
            }
            JOINT LeftCollar
            {
                OFFSET   3.911900  19.017000  -0.467063
                CHANNELS 3 Zrotation Xrotation Yrotation
                JOINT LeftShoulder
                {
                    OFFSET  10.383700   0.000000   0.000000
                    CHANNELS 3 Zrotation Xrotation Yrotation
                    JOINT LeftElbow
                    {
                        OFFSET  26.662100   0.001529   0.000325
                        CHANNELS 3 Zrotation Xrotation Yrotation
                        JOINT LeftWrist
                        {
                            OFFSET  28.869000  -0.000011  -0.000096
                            CHANNELS 3 Zrotation Xrotation Yrotation
                            JOINT LeftFinger0
                            {
                                OFFSET   2.044650  -2.323460   3.252850
                                CHANNELS 3 Zrotation Xrotation Yrotation
                                JOINT LeftFinger01
                                {
                                    OFFSET   3.088130   0.000000   0.000000
                                    CHANNELS 3 Zrotation Xrotation Yrotation
                                    JOINT LeftFinger02
                                    {
                                        OFFSET   2.639460   0.000000   0.000000
                                        CHANNELS 3 Zrotation Xrotation Yrotation
                                        End Site
                                        {
                                            OFFSET   2.582190   0.000000   0.000000
                                        }
                                    }
                                }
                            }
                            JOINT LeftFinger1
                            {
                                OFFSET   8.364480   0.000000   3.252850
                                CHANNELS 3 Zrotation Xrotation Yrotation
                                JOINT LeftFinger11
                                {
                                    OFFSET   4.646930   0.000000   0.000000
                                    CHANNELS 3 Zrotation Xrotation Yrotation
                                    JOINT LeftFinger12
                                    {
                                        OFFSET   2.323460   0.000000   0.000000
                                        CHANNELS 3 Zrotation Xrotation Yrotation
                                        End Site
                                        {
                                            OFFSET   2.273050   0.000000   0.000000
                                        }
                                    }
                                }
                            }
                            JOINT LeftFinger2
                            {
                                OFFSET   8.364480   0.000016   1.078090
                                CHANNELS 3 Zrotation Xrotation Yrotation
                                JOINT LeftFinger21
                                {
                                    OFFSET   5.111620   0.000000   0.000000
                                    CHANNELS 3 Zrotation Xrotation Yrotation
                                    JOINT LeftFinger22
                                    {
                                        OFFSET   2.788160   0.000017   0.000000
                                        CHANNELS 3 Zrotation Xrotation Yrotation
                                        End Site
                                        {
                                            OFFSET   2.727660   0.000000   0.000000
                                        }
                                    }
                                }
                            }
                            JOINT LeftFinger3
                            {
                                OFFSET   7.899780   0.000015  -1.078090
                                CHANNELS 3 Zrotation Xrotation Yrotation
                                JOINT LeftFinger31
                                {
                                    OFFSET   4.646920   0.000000   0.000000
                                    CHANNELS 3 Zrotation Xrotation Yrotation
                                    JOINT LeftFinger32
                                    {
                                        OFFSET   2.323470   0.000000   0.000000
                                        CHANNELS 3 Zrotation Xrotation Yrotation
                                        End Site
                                        {
                                            OFFSET   2.273050   0.000000   0.000000
                                        }
                                    }
                                }
                            }
                            JOINT LeftFinger4
                            {
                                OFFSET   7.435090   0.000000  -3.252850
                                CHANNELS 3 Zrotation Xrotation Yrotation
                                JOINT LeftFinger41
                                {
                                    OFFSET   3.717550   0.000000   0.000000
                                    CHANNELS 3 Zrotation Xrotation Yrotation
                                    JOINT LeftFinger42
                                    {
                                        OFFSET   1.858760   0.000000   0.000000
                                        CHANNELS 3 Zrotation Xrotation Yrotation
                                        End Site
                                        {
                                            OFFSET   1.818440   0.000000   0.000000
                                        }
                                    }
                                }
                            }
                        }
                    }
                }
            }
            JOINT RightCollar
            {
                OFFSET  -3.911900  19.017000  -0.467062
                CHANNELS 3 Zrotation Xrotation Yrotation
                JOINT RightShoulder
                {
                    OFFSET -10.383700   0.000015   0.000000
                    CHANNELS 3 Zrotation Xrotation Yrotation
                    JOINT RightElbow
                    {
                        OFFSET -26.662100   0.001341   0.000385
                        CHANNELS 3 Zrotation Xrotation Yrotation
                        JOINT RightWrist
                        {
                            OFFSET -28.869000   0.000025  -0.000080
                            CHANNELS 3 Zrotation Xrotation Yrotation
                            JOINT RightFinger0
                            {
                                OFFSET  -2.044650  -2.323490   3.252850
                                CHANNELS 3 Zrotation Xrotation Yrotation
                                JOINT RightFinger01
                                {
                                    OFFSET  -3.088130   0.000000   0.000000
                                    CHANNELS 3 Zrotation Xrotation Yrotation
                                    JOINT RightFinger02
                                    {
                                        OFFSET  -2.639460   0.000000   0.000000
                                        CHANNELS 3 Zrotation Xrotation Yrotation
                                        End Site
                                        {
                                            OFFSET  -2.582190   0.000000   0.000000
                                        }
                                    }
                                }
                            }
                            JOINT RightFinger1
                            {
                                OFFSET  -8.364480   0.000000   3.252850
                                CHANNELS 3 Zrotation Xrotation Yrotation
                                JOINT RightFinger11
                                {
                                    OFFSET  -4.646930   0.000000   0.000000
                                    CHANNELS 3 Zrotation Xrotation Yrotation
                                    JOINT RightFinger12
                                    {
                                        OFFSET  -2.323470   0.000000   0.000000
                                        CHANNELS 3 Zrotation Xrotation Yrotation
                                        End Site
                                        {
                                            OFFSET  -2.273050   0.000000   0.000000
                                        }
                                    }
                                }
                            }
                            JOINT RightFinger2
                            {
                                OFFSET  -8.364480   0.000000   1.078090
                                CHANNELS 3 Zrotation Xrotation Yrotation
                                JOINT RightFinger21
                                {
                                    OFFSET  -5.111610   0.000000   0.000000
                                    CHANNELS 3 Zrotation Xrotation Yrotation
                                    JOINT RightFinger22
                                    {
                                        OFFSET  -2.788160   0.000000   0.000000
                                        CHANNELS 3 Zrotation Xrotation Yrotation
                                        End Site
                                        {
                                            OFFSET  -2.727660   0.000000   0.000000
                                        }
                                    }
                                }
                            }
                            JOINT RightFinger3
                            {
                                OFFSET  -7.899780   0.000000  -1.078090
                                CHANNELS 3 Zrotation Xrotation Yrotation
                                JOINT RightFinger31
                                {
                                    OFFSET  -4.646920   0.000000   0.000000
                                    CHANNELS 3 Zrotation Xrotation Yrotation
                                    JOINT RightFinger32
                                    {
                                        OFFSET  -2.323470   0.000000   0.000000
                                        CHANNELS 3 Zrotation Xrotation Yrotation
                                        End Site
                                        {
                                            OFFSET  -2.273050   0.000000   0.000000
                                        }
                                    }
                                }
                            }
                            JOINT RightFinger4
                            {
                                OFFSET  -7.435090   0.000000  -3.252850
                                CHANNELS 3 Zrotation Xrotation Yrotation
                                JOINT RightFinger41
                                {
                                    OFFSET  -3.717550   0.000000   0.000000
                                    CHANNELS 3 Zrotation Xrotation Yrotation
                                    JOINT RightFinger42
                                    {
                                        OFFSET  -1.858770   0.000000   0.000000
                                        CHANNELS 3 Zrotation Xrotation Yrotation
                                        End Site
                                        {
                                            OFFSET  -1.818440   0.000000   0.000000
                                        }
                                    }
                                }
                            }
                        }
                    }
                }
            }
        }
    }
    JOINT LeftHip
    {
        OFFSET   9.783010   0.000000   0.000000
        CHANNELS 3 Zrotation Xrotation Yrotation
        JOINT LeftKnee
        {
            OFFSET   0.000070 -41.789100   0.000028
            CHANNELS 3 Zrotation Xrotation Yrotation
            JOINT LeftAnkle
            {
                OFFSET   0.000087 -41.133200  -0.000100
                CHANNELS 3 Zrotation Xrotation Yrotation
                JOINT LeftToe
                {
                    OFFSET   0.000000  -6.358960  14.674500
                    CHANNELS 3 Zrotation Xrotation Yrotation
                    End Site
                    {
                        OFFSET   0.000000   0.000000   3.913200
                    }
                }
            }
        }
    }
    JOINT RightHip
    {
        OFFSET  -9.783020   0.000000   0.000000
        CHANNELS 3 Zrotation Xrotation Yrotation
        JOINT RightKnee
        {
            OFFSET   0.000044 -41.789100  -0.000870
            CHANNELS 3 Zrotation Xrotation Yrotation
            JOINT RightAnkle
            {
                OFFSET  -0.000090 -41.133200  -0.000245
                CHANNELS 3 Zrotation Xrotation Yrotation
                JOINT RightToe
                {
                    OFFSET   0.000000  -6.358960  14.674500
                    CHANNELS 3 Zrotation Xrotation Yrotation
                    End Site
                    {
                        OFFSET   0.000000   0.000000   3.913200
                    }
                }
            }
        }
    }
}
MOTION
Frames: 4
Frame Time:   0.016667
  0.454626  89.665100  -1.374790   0.021689 -17.070800  11.840700  -0.751660   9.705750   4.124500  -2.271400  19.328800   8.567490  -3.077750   2.269020   0.122343  -5.078910   4.560020   9.986300  -1.575330  -1.299830  -3.708750 -26.103900   7.472480 -60.918600  33.708100   1.182610 -80.701900   6.898720   3.670830  -1.088560  34.937300  30.858800 -60.503200 -37.566900  -0.007138  -0.005479 -13.991000   0.000000  -0.026625 -42.963300   9.580390 -10.078600 -35.936600  -0.035951   0.035067 -25.939200  -0.045254   0.017353 -35.741900   1.116970  -1.445500 -53.809800  -0.013783   0.010025 -35.825500  -0.041807  -0.003375 -34.040700   1.075850  -1.527080 -51.625900  -0.058825   0.051458 -34.316200  -0.055060   0.002103 -43.005900  -1.961280   2.143680 -64.600800  -0.094250   0.020293 -43.024200  -0.055578  -0.033692   9.070300   0.148204   5.566010  69.480800  19.033800  -5.254560  -0.086369  -5.709100  17.884400 -14.300700  -9.969620   0.883084 -40.702300  30.479800  66.964900  24.608300   0.001263  -0.000521   7.304180  -0.000394   0.001005  28.038900   6.131680  11.342700  23.439900  -0.000177  -0.000255  16.408000  -0.000438   0.000056  27.987500   5.209470   9.695260  35.408500  -0.004126   0.000368  23.582100   0.000483   0.003722  27.466300   3.019370   5.784710  29.801500  -0.004261   0.001156  19.847800  -0.003194  -0.000155  36.504700  -0.125129  -0.169066  54.757200  -0.002653  -0.002254  36.468300   0.007446   0.003161   3.474970  15.843300   2.124840   1.292480   0.122682  -0.570426  -4.595660  -0.320121  -2.420450   0.000000   0.000000  -0.000000   4.623740  17.190200  -8.483600  -1.127740   3.790450 -14.469400   0.508940  -5.304650  -5.749890   0.000000   0.000000   0.000000
  0.439760  89.657500  -1.380850  -0.105612 -17.003500  11.437000  -0.728882   9.693080   3.970750  -2.196330  19.309200   8.248460  -2.884690   1.925720   0.097393  -4.754880   3.873600   9.514480  -1.672650  -1.583610  -3.399360 -27.201200   7.902410 -59.923200  32.292800   1.403830 -79.560600   5.848790  -1.172430   0.535672  35.406700  30.975600 -59.767200 -37.168400  -0.009503  -0.006997 -13.686700   0.000000  -0.028858 -43.847700   8.921440  -9.122680 -36.557600  -0.031687   0.030879 -26.527600  -0.040252   0.012823 -36.768900   0.222594  -0.208357 -54.229700  -0.006372   0.004602 -36.349400  -0.041890  -0.003383 -34.559900   0.227165  -0.258198 -52.680300  -0.051917   0.044561 -34.961100  -0.055738   0.002077 -43.907800  -2.256780   2.385530 -65.965800  -0.088035   0.014750 -43.933200  -0.048755  -0.034004   9.111520   0.039055   5.746670  69.349400  18.986000  -5.192150  -0.159571  -5.701720  17.865300 -14.228400  -9.972900   0.951770 -40.775800  30.501200  66.867900  24.567700   0.001133  -0.000450   7.283850  -0.000388   0.001014  27.995500   6.128640  11.355300  23.404600  -0.000145  -0.000209  16.383200  -0.000384   0.000000  27.982800   5.212210   9.702220  35.366600  -0.004127   0.000344  23.554200   0.000486   0.003720  27.458200   3.018890   5.786880  29.760000  -0.004283   0.001290  19.820100  -0.003219  -0.000231  36.462400  -0.114595  -0.155140  54.693800  -0.002667  -0.002240  36.426100   0.007517   0.003161   3.494980  15.820200   2.129900   1.275140   0.147955  -0.366893  -4.542460  -0.374278  -2.258320  -0.000000   0.000000   0.000000   4.623990  17.087300  -8.413170  -1.147500   3.778730 -14.354100   0.512696  -5.263870  -5.548380   0.000000   0.000000   0.000000
  0.425161  89.649200  -1.383720  -0.248014 -16.929300  10.983200  -0.697841   9.675800   3.807810  -2.100450  19.281000   7.909030  -2.695570   1.600340   0.075587  -4.439120   3.222560   9.120140  -1.750960  -1.929390  -3.047780 -28.227700   8.490600 -58.771700  30.876700   1.473480 -78.145800   5.164520  -6.097030   1.868650  36.270600  31.759300 -59.279000 -36.617900  -0.011870  -0.008637 -13.339800   0.000036  -0.021872 -44.555600   8.100960  -8.104320 -37.006900  -0.019801   0.019597 -26.956200  -0.025537   0.007677 -38.166400  -1.079870   1.374460 -54.285500  -0.004165   0.003288 -36.791600  -0.030234  -0.003385 -35.336300  -0.982865   1.393190 -53.521300  -0.027615   0.022726 -35.552100  -0.039358   0.002041 -44.613700  -2.731710   2.785130 -67.033100  -0.060718   0.010763 -44.644000  -0.031668  -0.025026   9.153850  -0.078132   5.944800  69.209600  18.903300  -5.139490  -0.253502  -5.644780  17.849700 -14.242600 -10.058600   1.004290 -40.814600  30.527400  66.803500  24.577400   0.001010  -0.000399   7.288720  -0.000387   0.001046  28.005800   6.126830  11.349100  23.412500  -0.000115  -0.000153  16.388700  -0.000330   0.000000  27.989100   5.204770   9.686190  35.415600  -0.004127   0.000322  23.586900   0.000485   0.003717  27.465100   3.013130   5.774630  29.793000  -0.004305   0.001408  19.842100  -0.003242  -0.000307  36.477800  -0.118528  -0.160362  54.717100  -0.002686  -0.002220  36.441600   0.007587   0.003165   3.509390  15.837200   2.148340   1.262270   0.075504  -0.133260  -4.485700  -0.383932  -2.088130   0.000000   0.000000  -0.000000   4.619710  16.985100  -8.350640  -1.166010   3.748480 -14.217100   0.521077  -5.211090  -5.308300   0.000000   0.000000   0.000000
  0.411553  89.640500  -1.384130  -0.404564 -16.844500  10.482900  -0.657327   9.650430   3.645150  -1.989160  19.236900   7.568210  -2.513360   1.291890   0.056777  -4.135140   2.604460   8.770920  -1.831260  -2.255520  -2.702830 -29.242700   9.161360 -57.477000  29.691200   1.475820 -76.587700   4.872090 -11.013700   3.061090  37.176300  32.750800 -58.977800 -36.061000  -0.014099  -0.010160 -13.016700   0.000086  -0.011364 -45.122300   7.146850  -7.028690 -37.336900  -0.007201   0.007511 -27.272900  -0.009517   0.003189 -39.436100  -2.356330   2.863660 -54.303200  -0.003504   0.002957 -37.138000  -0.013858  -0.003388 -36.104100  -2.175430   2.970810 -54.026200  -0.005489   0.004078 -36.034400  -0.016857   0.001897 -45.146200  -3.247810   3.229890 -67.856200  -0.029573   0.008697 -45.192200  -0.015510  -0.012342   9.192810  -0.186642   6.137030  69.055900  18.813900  -5.084830  -0.360691  -5.572620  17.831100 -14.256800 -10.193400   1.056620 -40.836500  30.555100  66.742600  24.603900   0.000888  -0.000348   7.301950  -0.000383   0.001080  28.028500   6.120280  11.324800  23.429600  -0.000083  -0.000096  16.400700  -0.000275   0.000000  28.001100   5.187130   9.649260  35.505200  -0.004127   0.000299  23.646500   0.000483   0.003715  27.478800   2.998040   5.742220  29.856100  -0.004327   0.001523  19.884200  -0.003266  -0.000383  36.507400  -0.126027  -0.170308  54.761600  -0.002707  -0.002200  36.471200   0.007658   0.003172   3.522950  15.854000   2.178580   1.251490   0.003050   0.126036  -4.425130  -0.393586  -1.911960   0.000000   0.000000   0.000000   4.612230  16.874300  -8.283710  -1.185280   3.713130 -14.069600   0.531995  -5.151870  -5.036100  -0.000000   0.000000   0.000000
